<svg width="171" height="26" viewBox="0 0 171 26" fill="none" xmlns="http://www.w3.org/2000/svg">
<path fill-rule="evenodd" clip-rule="evenodd" d="M6.52103 7.37087C6.6223 6.8645 7.06692 6.5 7.58332 6.5H13C13.3805 6.5 13.7332 6.69966 13.9289 7.02596L14.9134 8.66667H22.75C23.3483 8.66667 23.8333 9.15169 23.8333 9.75C23.8333 10.3483 23.3483 10.8333 22.75 10.8333H16.2134L16.8634 11.9167H18.4166C19.5659 11.9167 20.6681 12.3732 21.4808 13.1859C22.2934 13.9985 22.75 15.1007 22.75 16.25C22.75 17.3993 22.2934 18.5015 21.4808 19.3141C20.6681 20.1268 19.5659 20.5833 18.4166 20.5833H5.41665C4.26737 20.5833 3.16517 20.1268 2.35252 19.3141C1.53986 18.5015 1.08331 17.3993 1.08331 16.25C1.08331 15.1007 1.53986 13.9985 2.35252 13.1859C3.16517 12.3732 4.26737 11.9167 5.41665 11.9167H5.61187L6.52103 7.37087ZM13.3609 10.2905C13.3671 10.3013 13.3735 10.312 13.3801 10.3225L14.3366 11.9167H7.82144L8.47144 8.66667H12.3866L13.3609 10.2905ZM16.2698 14.0833C16.2573 14.0836 16.2447 14.0836 16.2322 14.0833H6.52236C6.50826 14.0836 6.49411 14.0836 6.47992 14.0833H5.41665C4.84201 14.0833 4.29091 14.3116 3.88458 14.7179C3.47825 15.1243 3.24998 15.6754 3.24998 16.25C3.24998 16.8246 3.47825 17.3757 3.88458 17.7821C4.29091 18.1884 4.84201 18.4167 5.41665 18.4167H18.4166C18.9913 18.4167 19.5424 18.1884 19.9487 17.7821C20.355 17.3757 20.5833 16.8246 20.5833 16.25C20.5833 15.6754 20.355 15.1243 19.9487 14.7179C19.5424 14.3116 18.9913 14.0833 18.4166 14.0833H16.2698Z" fill="#63992E"/>
<path d="M41.16 6H43V20H41.16V13.7H34.36V20H32.5V6H34.36V11.94H41.16V6ZM54.0961 10H55.8361V20H54.0961V18.28C53.2294 19.6 51.9694 20.26 50.3161 20.26C48.9161 20.26 47.7228 19.7533 46.7361 18.74C45.7494 17.7133 45.2561 16.4667 45.2561 15C45.2561 13.5333 45.7494 12.2933 46.7361 11.28C47.7228 10.2533 48.9161 9.74 50.3161 9.74C51.9694 9.74 53.2294 10.4 54.0961 11.72V10ZM50.5361 18.58C51.5494 18.58 52.3961 18.24 53.0761 17.56C53.7561 16.8667 54.0961 16.0133 54.0961 15C54.0961 13.9867 53.7561 13.14 53.0761 12.46C52.3961 11.7667 51.5494 11.42 50.5361 11.42C49.5361 11.42 48.6961 11.7667 48.0161 12.46C47.3361 13.14 46.9961 13.9867 46.9961 15C46.9961 16.0133 47.3361 16.8667 48.0161 17.56C48.6961 18.24 49.5361 18.58 50.5361 18.58ZM63.4523 9.74C64.6257 9.74 65.5657 10.1133 66.2723 10.86C66.979 11.5933 67.3323 12.5933 67.3323 13.86V20H65.5923V13.96C65.5923 13.1467 65.3723 12.52 64.9323 12.08C64.4923 11.6267 63.8857 11.4 63.1123 11.4C62.2457 11.4 61.5457 11.6733 61.0123 12.22C60.479 12.7533 60.2123 13.58 60.2123 14.7V20H58.4723V10H60.2123V11.44C60.919 10.3067 61.999 9.74 63.4523 9.74ZM78.0614 10H79.7814V19.58C79.7814 21.06 79.2814 22.2067 78.2814 23.02C77.2814 23.8467 76.0814 24.26 74.6814 24.26C73.5614 24.26 72.5947 24.0467 71.7814 23.62C70.9681 23.2067 70.3547 22.6067 69.9414 21.82L71.4614 20.96C72.0081 22.08 73.0947 22.64 74.7214 22.64C75.7614 22.64 76.5747 22.3667 77.1614 21.82C77.7614 21.2733 78.0614 20.5267 78.0614 19.58V18.16C77.1814 19.4933 75.9281 20.16 74.3014 20.16C72.8747 20.16 71.6681 19.6533 70.6814 18.64C69.6947 17.6267 69.2014 16.3933 69.2014 14.94C69.2014 13.4867 69.6947 12.26 70.6814 11.26C71.6681 10.2467 72.8747 9.74 74.3014 9.74C75.9414 9.74 77.1947 10.4 78.0614 11.72V10ZM71.9614 17.48C72.6414 18.16 73.4881 18.5 74.5014 18.5C75.5147 18.5 76.3614 18.16 77.0414 17.48C77.7214 16.8 78.0614 15.9533 78.0614 14.94C78.0614 13.94 77.7214 13.1 77.0414 12.42C76.3614 11.74 75.5147 11.4 74.5014 11.4C73.4881 11.4 72.6414 11.74 71.9614 12.42C71.2814 13.1 70.9414 13.94 70.9414 14.94C70.9414 15.9533 71.2814 16.8 71.9614 17.48ZM93.2177 9.74C94.3377 9.74 95.2443 10.1067 95.9377 10.84C96.631 11.56 96.9777 12.54 96.9777 13.78V20H95.2377V13.84C95.2377 13.0667 95.0377 12.4667 94.6377 12.04C94.2377 11.6133 93.7043 11.4 93.0377 11.4C92.291 11.4 91.691 11.6533 91.2377 12.16C90.7977 12.6533 90.5777 13.4133 90.5777 14.44V20H88.8377V13.84C88.8377 13.0667 88.6443 12.4667 88.2577 12.04C87.8843 11.6133 87.371 11.4 86.7177 11.4C85.9843 11.4 85.371 11.6533 84.8777 12.16C84.3977 12.6667 84.1577 13.4267 84.1577 14.44V20H82.4177V10H84.1577V11.34C84.8377 10.2733 85.831 9.74 87.1377 9.74C88.4843 9.74 89.4643 10.3067 90.0777 11.44C90.771 10.3067 91.8177 9.74 93.2177 9.74ZM107.67 10H109.41V20H107.67V18.28C106.804 19.6 105.544 20.26 103.89 20.26C102.49 20.26 101.297 19.7533 100.31 18.74C99.3236 17.7133 98.8303 16.4667 98.8303 15C98.8303 13.5333 99.3236 12.2933 100.31 11.28C101.297 10.2533 102.49 9.74 103.89 9.74C105.544 9.74 106.804 10.4 107.67 11.72V10ZM104.11 18.58C105.124 18.58 105.97 18.24 106.65 17.56C107.33 16.8667 107.67 16.0133 107.67 15C107.67 13.9867 107.33 13.14 106.65 12.46C105.97 11.7667 105.124 11.42 104.11 11.42C103.11 11.42 102.27 11.7667 101.59 12.46C100.91 13.14 100.57 13.9867 100.57 15C100.57 16.0133 100.91 16.8667 101.59 17.56C102.27 18.24 103.11 18.58 104.11 18.58ZM117.027 9.74C118.2 9.74 119.14 10.1133 119.847 10.86C120.553 11.5933 120.907 12.5933 120.907 13.86V20H119.167V13.96C119.167 13.1467 118.947 12.52 118.507 12.08C118.067 11.6267 117.46 11.4 116.687 11.4C115.82 11.4 115.12 11.6733 114.587 12.22C114.053 12.7533 113.787 13.58 113.787 14.7V20H112.047V10H113.787V11.44C114.493 10.3067 115.573 9.74 117.027 9.74ZM124.436 20.22C124.076 20.22 123.769 20.0933 123.516 19.84C123.262 19.5867 123.136 19.28 123.136 18.92C123.136 18.56 123.262 18.2533 123.516 18C123.769 17.7467 124.076 17.62 124.436 17.62C124.809 17.62 125.116 17.7467 125.356 18C125.609 18.2533 125.736 18.56 125.736 18.92C125.736 19.28 125.609 19.5867 125.356 19.84C125.116 20.0933 124.809 20.22 124.436 20.22ZM129.797 20L125.777 6H127.737L130.937 17.52L134.337 6H136.217L139.617 17.52L142.817 6H144.777L140.757 20H138.597L135.277 8.82L131.957 20H129.797ZM157.792 18.14C156.392 19.5533 154.679 20.26 152.652 20.26C150.626 20.26 148.912 19.5533 147.512 18.14C146.112 16.7267 145.412 15.0133 145.412 13C145.412 10.9733 146.112 9.26 147.512 7.86C148.912 6.44667 150.626 5.74 152.652 5.74C154.679 5.74 156.392 6.44667 157.792 7.86C159.206 9.26 159.912 10.9733 159.912 13C159.912 15.0133 159.206 16.7267 157.792 18.14ZM148.792 16.88C149.832 17.92 151.119 18.44 152.652 18.44C154.186 18.44 155.466 17.92 156.492 16.88C157.532 15.8267 158.052 14.5333 158.052 13C158.052 11.4533 157.532 10.16 156.492 9.12C155.466 8.06667 154.186 7.54 152.652 7.54C151.119 7.54 149.832 8.06667 148.792 9.12C147.766 10.16 147.252 11.4533 147.252 13C147.252 14.5333 147.766 15.8267 148.792 16.88ZM170.308 6V7.76H166.168V20H164.328V7.76H160.208V6H170.308Z" fill="black"/>
</svg>
