<svg width="150" height="150" viewBox="0 0 150 150" fill="none" xmlns="http://www.w3.org/2000/svg">
<path d="M51.3158 21.7105C51.3158 19.5304 53.083 17.7632 55.2632 17.7632H77.9605C80.1407 17.7632 81.9079 19.5304 81.9079 21.7105C81.9079 23.8907 80.1407 25.6579 77.9605 25.6579H55.2632C53.083 25.6579 51.3158 23.8907 51.3158 21.7105Z" fill="black"/>
<path d="M41.4474 113.487C41.4474 109.672 44.5402 106.579 48.3553 106.579C52.1704 106.579 55.2632 109.672 55.2632 113.487C55.2632 117.302 52.1704 120.395 48.3553 120.395C44.5402 120.395 41.4474 117.302 41.4474 113.487Z" fill="black"/>
<path d="M75.9869 106.579C72.1717 106.579 69.079 109.672 69.079 113.487C69.079 117.302 72.1717 120.395 75.9869 120.395C79.802 120.395 82.8948 117.302 82.8948 113.487C82.8948 109.672 79.802 106.579 75.9869 106.579Z" fill="black"/>
<path d="M98.6842 113.487C98.6842 109.672 101.777 106.579 105.592 106.579C109.407 106.579 112.5 109.672 112.5 113.487C112.5 117.302 109.407 120.395 105.592 120.395C101.777 120.395 98.6842 117.302 98.6842 113.487Z" fill="black"/>
<path fill-rule="evenodd" clip-rule="evenodd" d="M25.8399 115.192L18.6894 109.12C15.5978 106.495 13.8158 102.644 13.8158 98.5885V82.8947C13.8158 75.2645 20.0013 69.079 27.6316 69.079H43.2126L30.3762 60.5213C29.278 59.7892 28.6184 58.5566 28.6184 57.2368V39.4737H23.6842C21.5041 39.4737 19.7368 37.7064 19.7368 35.5263C19.7368 33.3462 21.5041 31.5789 23.6842 31.5789H93.75C95.9301 31.5789 97.6974 33.3462 97.6974 35.5263V47.3684H128.289V45.3947C128.289 43.2146 130.057 41.4474 132.237 41.4474C134.417 41.4474 136.184 43.2146 136.184 45.3947V57.2368C136.184 59.417 134.417 61.1842 132.237 61.1842C130.057 61.1842 128.289 59.417 128.289 57.2368V55.2632H97.6974V69.079H110.446C114.97 69.079 119.207 71.294 121.79 75.0087L130.88 88.0853C134.627 93.4745 134.064 100.756 129.535 105.506L127.647 107.486C128.066 109.087 128.289 110.767 128.289 112.5C128.289 123.4 119.453 132.237 108.553 132.237H45.3947C35.4073 132.237 27.1526 124.819 25.8399 115.192ZM26.8603 105.701C29.6307 98.1505 36.8836 92.7632 45.3947 92.7632H108.553C114.722 92.7632 120.231 95.594 123.85 100.028C125.765 97.9913 125.996 94.89 124.398 92.5917L115.307 79.515C114.201 77.923 112.384 76.9737 110.446 76.9737H27.6316C24.3614 76.9737 21.7105 79.6245 21.7105 82.8947V98.5885C21.7105 100.327 22.4743 101.977 23.7993 103.102L26.8603 105.701ZM89.8026 69.079V39.4737H36.5132V55.1242L57.4453 69.079H89.8026ZM45.3947 100.658C38.8545 100.658 33.5526 105.96 33.5526 112.5C33.5526 119.04 38.8545 124.342 45.3947 124.342H108.553C115.093 124.342 120.395 119.04 120.395 112.5C120.395 105.96 115.093 100.658 108.553 100.658H45.3947Z" fill="black"/>
</svg>
