<svg width="26" height="26" viewBox="0 0 26 26" fill="none" xmlns="http://www.w3.org/2000/svg">
<rect width="26" height="26" rx="4" fill="white"/>
<path fill-rule="evenodd" clip-rule="evenodd" d="M7.01943 7.80388C7.11291 7.33646 7.52333 7 8.00001 7H13C13.3513 7 13.6768 7.1843 13.8575 7.4855L14.7662 9H22C22.5523 9 23 9.44772 23 10C23 10.5523 22.5523 11 22 11H15.9662L16.5662 12H18C19.0609 12 20.0783 12.4214 20.8284 13.1716C21.5786 13.9217 22 14.9391 22 16C22 17.0609 21.5786 18.0783 20.8284 18.8284C20.0783 19.5786 19.0609 20 18 20H6C4.93913 20 3.92172 19.5786 3.17157 18.8284C2.42143 18.0783 2 17.0609 2 16C2 14.9391 2.42143 13.9217 3.17157 13.1716C3.92172 12.4214 4.93913 12 6 12H6.1802L7.01943 7.80388ZM13.3332 10.4989C13.3389 10.5089 13.3448 10.5187 13.3509 10.5285L14.2338 12H8.21981L8.81981 9H12.4338L13.3332 10.4989ZM16.0183 14C16.0067 14.0002 15.9951 14.0002 15.9836 14H7.02066C7.00764 14.0003 6.99458 14.0003 6.98148 14H6C5.46956 14 4.96086 14.2107 4.58579 14.5858C4.21071 14.9609 4 15.4696 4 16C4 16.5304 4.21071 17.0391 4.58579 17.4142C4.96086 17.7893 5.46956 18 6 18H18C18.5304 18 19.0391 17.7893 19.4142 17.4142C19.7893 17.0391 20 16.5304 20 16C20 15.4696 19.7893 14.9609 19.4142 14.5858C19.0391 14.2107 18.5304 14 18 14H16.0183Z" fill="black"/>
</svg>
